<mxfile host="app.diagrams.net" agent="Mozilla/5.0 (Windows NT 10.0; Win64; x64) AppleWebKit/537.36 (KHTML, like Gecko) Chrome/109.0.0.0 Safari/537.36" version="25.0.3">
  <diagram name="Page-1" id="7e0a89b8-554c-2b80-1dc8-d5c74ca68de4">
    <mxGraphModel dx="1706" dy="1066" grid="0" gridSize="10" guides="1" tooltips="1" connect="1" arrows="1" fold="1" page="1" pageScale="1" pageWidth="1100" pageHeight="850" background="none" math="0" shadow="0">
      <root>
        <mxCell id="0" />
        <mxCell id="1" parent="0" />
        <mxCell id="8Ud3Lt6BFrIF86FxFFmQ-59" value="" style="verticalLabelPosition=bottom;shadow=0;dashed=0;align=center;html=1;verticalAlign=top;shape=mxgraph.electrical.transmission.2_line_bus;" vertex="1" parent="1">
          <mxGeometry x="889" y="300" width="130" height="25" as="geometry" />
        </mxCell>
        <mxCell id="8Ud3Lt6BFrIF86FxFFmQ-58" value="" style="verticalLabelPosition=bottom;shadow=0;dashed=0;align=center;html=1;verticalAlign=top;shape=mxgraph.electrical.transmission.2_line_bus;" vertex="1" parent="1">
          <mxGeometry x="229" y="300" width="130" height="25" as="geometry" />
        </mxCell>
        <mxCell id="8Ud3Lt6BFrIF86FxFFmQ-18" value="S0-S3" style="verticalLabelPosition=bottom;shadow=0;dashed=0;align=center;html=1;verticalAlign=top;shape=mxgraph.electrical.transmission.4_line_bus;" vertex="1" parent="1">
          <mxGeometry x="669" y="266" width="105" height="75" as="geometry" />
        </mxCell>
        <mxCell id="8Ud3Lt6BFrIF86FxFFmQ-19" value="" style="verticalLabelPosition=bottom;shadow=0;dashed=0;align=center;html=1;verticalAlign=top;shape=mxgraph.electrical.transmission.fourLineBusElbow;notch=75;" vertex="1" parent="1">
          <mxGeometry x="894" y="155" width="120" height="120" as="geometry" />
        </mxCell>
        <mxCell id="8Ud3Lt6BFrIF86FxFFmQ-21" value="" style="endArrow=none;html=1;strokeWidth=1;rounded=0;" edge="1" parent="1">
          <mxGeometry width="100" relative="1" as="geometry">
            <mxPoint x="674" y="426" as="sourcePoint" />
            <mxPoint x="774" y="426" as="targetPoint" />
          </mxGeometry>
        </mxCell>
        <mxCell id="8Ud3Lt6BFrIF86FxFFmQ-22" value="SIG" style="edgeLabel;html=1;align=center;verticalAlign=middle;resizable=0;points=[];" vertex="1" connectable="0" parent="8Ud3Lt6BFrIF86FxFFmQ-21">
          <mxGeometry x="-0.12" relative="1" as="geometry">
            <mxPoint as="offset" />
          </mxGeometry>
        </mxCell>
        <mxCell id="8Ud3Lt6BFrIF86FxFFmQ-24" value="" style="verticalLabelPosition=bottom;shadow=0;dashed=0;align=center;html=1;verticalAlign=top;shape=mxgraph.electrical.transmission.eightLineBusElbow;notch=180;rotation=-90;" vertex="1" parent="1">
          <mxGeometry x="894" y="350" width="200" height="200" as="geometry" />
        </mxCell>
        <mxCell id="8Ud3Lt6BFrIF86FxFFmQ-25" value="" style="verticalLabelPosition=bottom;shadow=0;dashed=0;align=center;html=1;verticalAlign=top;shape=mxgraph.electrical.transmission.eightLineBusElbow;notch=180;rotation=0;" vertex="1" parent="1">
          <mxGeometry x="895" y="550" width="199" height="199" as="geometry" />
        </mxCell>
        <mxCell id="8Ud3Lt6BFrIF86FxFFmQ-26" value="ENC_B_7 - ENC_B_0" style="verticalLabelPosition=bottom;shadow=0;dashed=0;align=center;html=1;verticalAlign=top;shape=mxgraph.electrical.transmission.8_line_bus;" vertex="1" parent="1">
          <mxGeometry x="764" y="569" width="130" height="180" as="geometry" />
        </mxCell>
        <mxCell id="8Ud3Lt6BFrIF86FxFFmQ-7" value="S0-S3" style="verticalLabelPosition=bottom;shadow=0;dashed=0;align=center;html=1;verticalAlign=top;shape=mxgraph.electrical.transmission.4_line_bus;" vertex="1" parent="1">
          <mxGeometry x="9" y="279" width="105" height="75" as="geometry" />
        </mxCell>
        <mxCell id="8Ud3Lt6BFrIF86FxFFmQ-8" value="" style="verticalLabelPosition=bottom;shadow=0;dashed=0;align=center;html=1;verticalAlign=top;shape=mxgraph.electrical.transmission.fourLineBusElbow;notch=75;" vertex="1" parent="1">
          <mxGeometry x="234" y="155" width="120" height="120" as="geometry" />
        </mxCell>
        <mxCell id="8Ud3Lt6BFrIF86FxFFmQ-9" value="4067" style="rounded=0;whiteSpace=wrap;html=1;" vertex="1" parent="1">
          <mxGeometry x="114" y="190" width="120" height="350" as="geometry" />
        </mxCell>
        <mxCell id="8Ud3Lt6BFrIF86FxFFmQ-10" value="" style="endArrow=none;html=1;strokeWidth=1;rounded=0;" edge="1" parent="1">
          <mxGeometry width="100" relative="1" as="geometry">
            <mxPoint x="14" y="439" as="sourcePoint" />
            <mxPoint x="114" y="439" as="targetPoint" />
          </mxGeometry>
        </mxCell>
        <mxCell id="8Ud3Lt6BFrIF86FxFFmQ-11" value="SIG" style="edgeLabel;html=1;align=center;verticalAlign=middle;resizable=0;points=[];" vertex="1" connectable="0" parent="8Ud3Lt6BFrIF86FxFFmQ-10">
          <mxGeometry x="-0.12" relative="1" as="geometry">
            <mxPoint as="offset" />
          </mxGeometry>
        </mxCell>
        <mxCell id="8Ud3Lt6BFrIF86FxFFmQ-12" value="" style="verticalLabelPosition=bottom;shadow=0;dashed=0;align=center;html=1;verticalAlign=top;shape=mxgraph.electrical.transmission.4_line_bus;rotation=-90;" vertex="1" parent="1">
          <mxGeometry x="252" y="55" width="129" height="75" as="geometry" />
        </mxCell>
        <mxCell id="8Ud3Lt6BFrIF86FxFFmQ-13" value="" style="verticalLabelPosition=bottom;shadow=0;dashed=0;align=center;html=1;verticalAlign=top;shape=mxgraph.electrical.transmission.eightLineBusElbow;notch=180;rotation=-90;" vertex="1" parent="1">
          <mxGeometry x="234" y="350" width="200" height="200" as="geometry" />
        </mxCell>
        <mxCell id="8Ud3Lt6BFrIF86FxFFmQ-14" value="" style="verticalLabelPosition=bottom;shadow=0;dashed=0;align=center;html=1;verticalAlign=top;shape=mxgraph.electrical.transmission.eightLineBusElbow;notch=180;rotation=90;" vertex="1" parent="1">
          <mxGeometry x="254" y="550" width="199" height="199" as="geometry" />
        </mxCell>
        <mxCell id="8Ud3Lt6BFrIF86FxFFmQ-15" value="ENC_A_0 - ENC_A_7" style="verticalLabelPosition=bottom;shadow=0;dashed=0;align=center;html=1;verticalAlign=top;shape=mxgraph.electrical.transmission.8_line_bus;" vertex="1" parent="1">
          <mxGeometry x="453" y="569" width="130" height="180" as="geometry" />
        </mxCell>
        <mxCell id="8Ud3Lt6BFrIF86FxFFmQ-27" value="4067" style="rounded=0;whiteSpace=wrap;html=1;" vertex="1" parent="1">
          <mxGeometry x="774" y="188" width="120" height="350" as="geometry" />
        </mxCell>
        <mxCell id="8Ud3Lt6BFrIF86FxFFmQ-28" value="" style="verticalLabelPosition=bottom;shadow=0;dashed=0;align=center;html=1;verticalAlign=top;shape=mxgraph.electrical.transmission.fourLineBusElbow;notch=75;rotation=-90;" vertex="1" parent="1">
          <mxGeometry x="894" y="35" width="120" height="120" as="geometry" />
        </mxCell>
        <mxCell id="8Ud3Lt6BFrIF86FxFFmQ-29" value="" style="verticalLabelPosition=bottom;shadow=0;dashed=0;align=center;html=1;verticalAlign=top;shape=mxgraph.electrical.transmission.4_line_bus;" vertex="1" parent="1">
          <mxGeometry x="264" y="35" width="630" height="75" as="geometry" />
        </mxCell>
        <mxCell id="8Ud3Lt6BFrIF86FxFFmQ-42" value="" style="verticalLabelPosition=bottom;shadow=0;dashed=0;align=center;html=1;verticalAlign=top;strokeWidth=1;shape=ellipse;" vertex="1" parent="1">
          <mxGeometry x="267" y="24" width="22" height="22" as="geometry" />
        </mxCell>
        <mxCell id="8Ud3Lt6BFrIF86FxFFmQ-43" value="" style="verticalLabelPosition=bottom;shadow=0;dashed=0;align=center;html=1;verticalAlign=top;strokeWidth=1;shape=ellipse;" vertex="1" parent="1">
          <mxGeometry x="293" y="24" width="22" height="22" as="geometry" />
        </mxCell>
        <mxCell id="8Ud3Lt6BFrIF86FxFFmQ-44" value="" style="verticalLabelPosition=bottom;shadow=0;dashed=0;align=center;html=1;verticalAlign=top;strokeWidth=1;shape=ellipse;" vertex="1" parent="1">
          <mxGeometry x="345" y="24" width="22" height="22" as="geometry" />
        </mxCell>
        <mxCell id="8Ud3Lt6BFrIF86FxFFmQ-45" value="" style="verticalLabelPosition=bottom;shadow=0;dashed=0;align=center;html=1;verticalAlign=top;strokeWidth=1;shape=ellipse;" vertex="1" parent="1">
          <mxGeometry x="319" y="24" width="22" height="22" as="geometry" />
        </mxCell>
        <mxCell id="8Ud3Lt6BFrIF86FxFFmQ-46" value="" style="verticalLabelPosition=bottom;shadow=0;dashed=0;align=center;html=1;verticalAlign=top;strokeWidth=1;shape=ellipse;" vertex="1" parent="1">
          <mxGeometry x="266.5" y="100" width="22" height="22" as="geometry" />
        </mxCell>
        <mxCell id="8Ud3Lt6BFrIF86FxFFmQ-47" value="" style="verticalLabelPosition=bottom;shadow=0;dashed=0;align=center;html=1;verticalAlign=top;strokeWidth=1;shape=ellipse;" vertex="1" parent="1">
          <mxGeometry x="292.5" y="100" width="22" height="22" as="geometry" />
        </mxCell>
        <mxCell id="8Ud3Lt6BFrIF86FxFFmQ-48" value="" style="verticalLabelPosition=bottom;shadow=0;dashed=0;align=center;html=1;verticalAlign=top;strokeWidth=1;shape=ellipse;" vertex="1" parent="1">
          <mxGeometry x="318.5" y="100" width="22" height="22" as="geometry" />
        </mxCell>
        <mxCell id="8Ud3Lt6BFrIF86FxFFmQ-49" value="" style="verticalLabelPosition=bottom;shadow=0;dashed=0;align=center;html=1;verticalAlign=top;strokeWidth=1;shape=ellipse;" vertex="1" parent="1">
          <mxGeometry x="344.5" y="100" width="22" height="22" as="geometry" />
        </mxCell>
        <mxCell id="8Ud3Lt6BFrIF86FxFFmQ-50" value="" style="verticalLabelPosition=bottom;shadow=0;dashed=0;align=center;html=1;verticalAlign=top;strokeWidth=1;shape=ellipse;" vertex="1" parent="1">
          <mxGeometry x="266.5" y="75" width="22" height="22" as="geometry" />
        </mxCell>
        <mxCell id="8Ud3Lt6BFrIF86FxFFmQ-51" value="" style="verticalLabelPosition=bottom;shadow=0;dashed=0;align=center;html=1;verticalAlign=top;strokeWidth=1;shape=ellipse;" vertex="1" parent="1">
          <mxGeometry x="292.5" y="75" width="22" height="22" as="geometry" />
        </mxCell>
        <mxCell id="8Ud3Lt6BFrIF86FxFFmQ-52" value="" style="verticalLabelPosition=bottom;shadow=0;dashed=0;align=center;html=1;verticalAlign=top;strokeWidth=1;shape=ellipse;" vertex="1" parent="1">
          <mxGeometry x="318.5" y="75" width="22" height="22" as="geometry" />
        </mxCell>
        <mxCell id="8Ud3Lt6BFrIF86FxFFmQ-53" value="" style="verticalLabelPosition=bottom;shadow=0;dashed=0;align=center;html=1;verticalAlign=top;strokeWidth=1;shape=ellipse;" vertex="1" parent="1">
          <mxGeometry x="344.5" y="75" width="22" height="22" as="geometry" />
        </mxCell>
        <mxCell id="8Ud3Lt6BFrIF86FxFFmQ-54" value="" style="verticalLabelPosition=bottom;shadow=0;dashed=0;align=center;html=1;verticalAlign=top;strokeWidth=1;shape=ellipse;" vertex="1" parent="1">
          <mxGeometry x="266.5" y="49" width="22" height="22" as="geometry" />
        </mxCell>
        <mxCell id="8Ud3Lt6BFrIF86FxFFmQ-55" value="" style="verticalLabelPosition=bottom;shadow=0;dashed=0;align=center;html=1;verticalAlign=top;strokeWidth=1;shape=ellipse;" vertex="1" parent="1">
          <mxGeometry x="292.5" y="49" width="22" height="22" as="geometry" />
        </mxCell>
        <mxCell id="8Ud3Lt6BFrIF86FxFFmQ-56" value="" style="verticalLabelPosition=bottom;shadow=0;dashed=0;align=center;html=1;verticalAlign=top;strokeWidth=1;shape=ellipse;" vertex="1" parent="1">
          <mxGeometry x="318.5" y="49" width="22" height="22" as="geometry" />
        </mxCell>
        <mxCell id="8Ud3Lt6BFrIF86FxFFmQ-57" value="" style="verticalLabelPosition=bottom;shadow=0;dashed=0;align=center;html=1;verticalAlign=top;strokeWidth=1;shape=ellipse;" vertex="1" parent="1">
          <mxGeometry x="344.5" y="49" width="22" height="22" as="geometry" />
        </mxCell>
        <mxCell id="8Ud3Lt6BFrIF86FxFFmQ-60" value="button matrix" style="text;html=1;align=center;verticalAlign=middle;whiteSpace=wrap;rounded=0;" vertex="1" parent="1">
          <mxGeometry x="207" y="57.5" width="60" height="30" as="geometry" />
        </mxCell>
        <mxCell id="8Ud3Lt6BFrIF86FxFFmQ-68" value="Encoders" style="text;html=1;align=center;verticalAlign=middle;whiteSpace=wrap;rounded=0;" vertex="1" parent="1">
          <mxGeometry x="644" y="500" width="60" height="30" as="geometry" />
        </mxCell>
        <mxCell id="8Ud3Lt6BFrIF86FxFFmQ-69" value="C0" style="text;html=1;align=center;verticalAlign=middle;whiteSpace=wrap;rounded=0;" vertex="1" parent="1">
          <mxGeometry x="185" y="508" width="60" height="30" as="geometry" />
        </mxCell>
        <mxCell id="8Ud3Lt6BFrIF86FxFFmQ-70" value="C0" style="text;html=1;align=center;verticalAlign=middle;whiteSpace=wrap;rounded=0;" vertex="1" parent="1">
          <mxGeometry x="845" y="508" width="60" height="30" as="geometry" />
        </mxCell>
        <mxCell id="8Ud3Lt6BFrIF86FxFFmQ-71" value="C15" style="text;html=1;align=center;verticalAlign=middle;whiteSpace=wrap;rounded=0;" vertex="1" parent="1">
          <mxGeometry x="185" y="188" width="60" height="30" as="geometry" />
        </mxCell>
        <mxCell id="8Ud3Lt6BFrIF86FxFFmQ-72" value="C15" style="text;html=1;align=center;verticalAlign=middle;whiteSpace=wrap;rounded=0;" vertex="1" parent="1">
          <mxGeometry x="845" y="188" width="60" height="30" as="geometry" />
        </mxCell>
        <mxCell id="8Ud3Lt6BFrIF86FxFFmQ-73" value="" style="pointerEvents=1;verticalLabelPosition=bottom;shadow=0;dashed=0;align=center;html=1;verticalAlign=top;shape=mxgraph.electrical.electro-mechanical.relay_coil_2;" vertex="1" parent="1">
          <mxGeometry x="624" y="530" width="100" height="70" as="geometry" />
        </mxCell>
        <mxCell id="8Ud3Lt6BFrIF86FxFFmQ-74" value="" style="pointerEvents=1;verticalLabelPosition=bottom;shadow=0;dashed=0;align=center;html=1;verticalAlign=top;shape=mxgraph.electrical.electro-mechanical.relay_coil_2;" vertex="1" parent="1">
          <mxGeometry x="624" y="714" width="100" height="70" as="geometry" />
        </mxCell>
        <mxCell id="8Ud3Lt6BFrIF86FxFFmQ-75" value="" style="pointerEvents=1;verticalLabelPosition=bottom;shadow=0;dashed=0;align=center;html=1;verticalAlign=top;shape=mxgraph.electrical.electro-mechanical.relay_coil_2;" vertex="1" parent="1">
          <mxGeometry x="624" y="668" width="100" height="70" as="geometry" />
        </mxCell>
        <mxCell id="8Ud3Lt6BFrIF86FxFFmQ-76" value="" style="pointerEvents=1;verticalLabelPosition=bottom;shadow=0;dashed=0;align=center;html=1;verticalAlign=top;shape=mxgraph.electrical.electro-mechanical.relay_coil_2;" vertex="1" parent="1">
          <mxGeometry x="624" y="622" width="100" height="70" as="geometry" />
        </mxCell>
        <mxCell id="8Ud3Lt6BFrIF86FxFFmQ-77" value="" style="pointerEvents=1;verticalLabelPosition=bottom;shadow=0;dashed=0;align=center;html=1;verticalAlign=top;shape=mxgraph.electrical.electro-mechanical.relay_coil_2;" vertex="1" parent="1">
          <mxGeometry x="624" y="576" width="100" height="70" as="geometry" />
        </mxCell>
      </root>
    </mxGraphModel>
  </diagram>
</mxfile>
